<svg id="Capa_1" data-name="Capa 1" xmlns="http://www.w3.org/2000/svg" viewBox="0 0 13.35 198.88"><defs><style>.cls-1{fill:#1f140f;}</style></defs><path class="cls-1" d="M1,2.39h10.9v1H7.18V9.87h4.68v1H1v-1H6.31V3.42H1Z"/><path class="cls-1" d="M1,16.54l10.9,4.29V22L1,26.17V25.11l3.42-1.25v-5L1,17.6Zm4.3,2.7v4.27L11,21.37Z"/><path class="cls-1" d="M5.91,32.87H1l0-1H11.86v4.27a4.71,4.71,0,0,1-.67,2.75,2.49,2.49,0,0,1-2.19,1,2.81,2.81,0,0,1-1.63-.42,3.14,3.14,0,0,1-1-1.35,1.69,1.69,0,0,1-.49.75,2.09,2.09,0,0,1-.73.41,3.86,3.86,0,0,1-.86.18l-.88,0-1,.05-.66.09a1.7,1.7,0,0,0-.4.13.58.58,0,0,0-.22.18H1l0-1.13a2.12,2.12,0,0,1,.76-.24c.32,0,.66-.08,1-.1l1-.06a6.58,6.58,0,0,0,.82-.09,1.74,1.74,0,0,0,.7-.29,1.31,1.31,0,0,0,.41-.5,2.08,2.08,0,0,0,.18-.64,5.85,5.85,0,0,0,0-.73Zm.88,3.21a4.41,4.41,0,0,0,.12,1.06A2.34,2.34,0,0,0,7.3,38a2,2,0,0,0,.67.58,2.13,2.13,0,0,0,1,.21,2.14,2.14,0,0,0,1-.22,1.85,1.85,0,0,0,.62-.59,2.53,2.53,0,0,0,.31-.85,5.36,5.36,0,0,0,.1-1V32.87H6.79Z"/><path class="cls-1" d="M1,46.16h10.9v3.73c0,.3,0,.6,0,.89a4.94,4.94,0,0,1-.11.86,3.6,3.6,0,0,1-.25.83,4.32,4.32,0,0,1-.43.78,3.43,3.43,0,0,1-1,.89,5.15,5.15,0,0,1-1.19.55A6.46,6.46,0,0,1,7.62,55a8.59,8.59,0,0,1-1.19.08A10.46,10.46,0,0,1,5.32,55a8.24,8.24,0,0,1-1.1-.22,6.45,6.45,0,0,1-1-.4,4.56,4.56,0,0,1-.9-.63,3.49,3.49,0,0,1-.68-.83,4.58,4.58,0,0,1-.4-.94A6.82,6.82,0,0,1,1,51c0-.35-.05-.71-.05-1.07Zm.88,1v2.47A10.84,10.84,0,0,0,1.92,51a4,4,0,0,0,.42,1.25,2.47,2.47,0,0,0,.74.89,3.86,3.86,0,0,0,1,.55A5.06,5.06,0,0,0,5.26,54,7.94,7.94,0,0,0,6.43,54,9.89,9.89,0,0,0,7.63,54a5,5,0,0,0,1.17-.29,3.87,3.87,0,0,0,1-.57,3.11,3.11,0,0,0,.77-.94A3.3,3.3,0,0,0,10.91,51,12.22,12.22,0,0,0,11,49.66V47.19Z"/><path class="cls-1" d="M1,61.3h10.9V65c0,.3,0,.6,0,.89a4.94,4.94,0,0,1-.11.86,3.45,3.45,0,0,1-.25.83,3.74,3.74,0,0,1-.43.78,3.43,3.43,0,0,1-1,.89,5.15,5.15,0,0,1-1.19.55,6.46,6.46,0,0,1-1.27.29,8.69,8.69,0,0,1-1.19.09,10.5,10.5,0,0,1-1.11-.07,8.24,8.24,0,0,1-1.1-.22,6.45,6.45,0,0,1-1-.4,4.56,4.56,0,0,1-.9-.63,3.31,3.31,0,0,1-.68-.83,4.36,4.36,0,0,1-.4-.94,6.35,6.35,0,0,1-.2-1C1,65.75,1,65.39,1,65Zm.88,1V64.8a10.84,10.84,0,0,0,.08,1.31,4,4,0,0,0,.42,1.25,2.47,2.47,0,0,0,.74.89,4.21,4.21,0,0,0,1,.56,5.61,5.61,0,0,0,1.16.28,8,8,0,0,0,1.17.09,9.94,9.94,0,0,0,1.2-.08,5,5,0,0,0,1.17-.29,3.87,3.87,0,0,0,1-.57,3.11,3.11,0,0,0,.77-.94,3.3,3.3,0,0,0,.33-1.15A12.22,12.22,0,0,0,11,64.8V62.33Z"/><path class="cls-1" d="M1,76.81h10.9v1H1Z"/><path class="cls-1" d="M4.22,85.29A3.36,3.36,0,0,0,3,85.61a2.51,2.51,0,0,0-.82.68,2.67,2.67,0,0,0-.46,1,4.47,4.47,0,0,0-.15,1.17,4,4,0,0,0,.18,1.26,2.33,2.33,0,0,0,.5.86A1.78,1.78,0,0,0,3,91a2.27,2.27,0,0,0,.86.16,1.67,1.67,0,0,0,1-.29,2.24,2.24,0,0,0,.64-.75,4.25,4.25,0,0,0,.4-1.06c.1-.39.2-.8.3-1.22a12.38,12.38,0,0,1,.34-1.23,3.9,3.9,0,0,1,.53-1.06,2.56,2.56,0,0,1,.85-.75,2.76,2.76,0,0,1,1.33-.29,2.62,2.62,0,0,1,1.09.24,2.75,2.75,0,0,1,.94.7,3.36,3.36,0,0,1,.65,1.15,5,5,0,0,1,.24,1.61,4.42,4.42,0,0,1-.26,1.61,3.1,3.1,0,0,1-.7,1.14,2.91,2.91,0,0,1-1,.69,3.46,3.46,0,0,1-1.25.22v-1A2.38,2.38,0,0,0,10,90.7a2.09,2.09,0,0,0,.74-.6,2.57,2.57,0,0,0,.43-.86,3.76,3.76,0,0,0,.13-1,3.46,3.46,0,0,0-.22-1.33,2.29,2.29,0,0,0-.56-.85,2,2,0,0,0-.78-.44,1.84,1.84,0,0,0-.84-.05A1.47,1.47,0,0,0,8,86a2.7,2.7,0,0,0-.53.82,7,7,0,0,0-.33,1.06c-.08.39-.18.79-.27,1.19s-.21.8-.34,1.17a3.59,3.59,0,0,1-.53,1,2.5,2.5,0,0,1-.86.71,2.94,2.94,0,0,1-1.31.26,2.82,2.82,0,0,1-2.34-1,4.59,4.59,0,0,1-.84-2.94,5.69,5.69,0,0,1,.22-1.58,3.5,3.5,0,0,1,.67-1.25,3.11,3.11,0,0,1,1.1-.83,3.91,3.91,0,0,1,1.56-.29Z"/><path class="cls-1" d="M1,98.38h10.9v1H6.22L11.86,105v1.17l-4.34-4.3-6.56,5v-1.25l5.92-4.55L5.17,99.41H1Z"/><path class="cls-1" d="M1,112.59h10.9v1.57l-9.61,3.57v0l9.61,3.52v1.56H1v-1h9.72v0L1,118.2v-1l9.72-3.58v0H1Z"/><path class="cls-1" d="M11.86,129.47v1H5.37a4.45,4.45,0,0,0-2.92.76,3,3,0,0,0-.9,2.43,4.14,4.14,0,0,0,.24,1.5,2.29,2.29,0,0,0,.71,1,3,3,0,0,0,1.19.54,7.43,7.43,0,0,0,1.68.17h6.49v1H5.07a4.62,4.62,0,0,1-3.27-1,4.17,4.17,0,0,1-1.13-3.18,4.12,4.12,0,0,1,1.15-3.18,4.7,4.7,0,0,1,3.25-1Z"/><path class="cls-1" d="M4.22,145a3.18,3.18,0,0,0-1.24.33,2.29,2.29,0,0,0-.82.68,2.52,2.52,0,0,0-.46,1,4.34,4.34,0,0,0-.15,1.16,3.9,3.9,0,0,0,.18,1.26,2.33,2.33,0,0,0,.5.86,1.8,1.8,0,0,0,.72.5,2.47,2.47,0,0,0,.86.15,1.74,1.74,0,0,0,1-.28,2.24,2.24,0,0,0,.64-.75,4.41,4.41,0,0,0,.4-1.06q.15-.6.3-1.23a12.38,12.38,0,0,1,.34-1.23,4,4,0,0,1,.53-1.06,2.51,2.51,0,0,1,2.18-1,2.67,2.67,0,0,1,2,.93,3.41,3.41,0,0,1,.65,1.16,4.89,4.89,0,0,1,.24,1.6,4.35,4.35,0,0,1-.26,1.61,3.23,3.23,0,0,1-.7,1.15,2.89,2.89,0,0,1-1,.68,3.47,3.47,0,0,1-1.25.23v-1a2.38,2.38,0,0,0,1.07-.22,1.89,1.89,0,0,0,.74-.6,2.57,2.57,0,0,0,.43-.86,3.66,3.66,0,0,0,.13-1,3.44,3.44,0,0,0-.22-1.32,2.25,2.25,0,0,0-.56-.86,2,2,0,0,0-.78-.44,1.84,1.84,0,0,0-.84,0,1.46,1.46,0,0,0-.85.42,2.83,2.83,0,0,0-.53.82,7.1,7.1,0,0,0-.33,1.07c-.08.38-.18.78-.27,1.18s-.21.8-.34,1.18A3.73,3.73,0,0,1,6,151a2.48,2.48,0,0,1-.86.7,2.8,2.8,0,0,1-1.31.26,2.8,2.8,0,0,1-2.34-1A4.59,4.59,0,0,1,.67,148a5.62,5.62,0,0,1,.22-1.57,3.46,3.46,0,0,1,.67-1.26,3.08,3.08,0,0,1,1.1-.82,3.74,3.74,0,0,1,1.56-.3Z"/><path class="cls-1" d="M1,158.06h10.9v7.25H11v-6.22H7.05v5.61H6.17v-5.61H1.84v6.37H1Z"/><path class="cls-1" d="M11.86,171.53v1H5.37a4.45,4.45,0,0,0-2.92.76,3,3,0,0,0-.9,2.44,4.12,4.12,0,0,0,.24,1.49,2.18,2.18,0,0,0,.71,1,3,3,0,0,0,1.19.54,6.9,6.9,0,0,0,1.68.17h6.49v1H5.07a4.62,4.62,0,0,1-3.27-1,4.14,4.14,0,0,1-1.13-3.17,4.09,4.09,0,0,1,1.15-3.18,4.65,4.65,0,0,1,3.25-1.05Z"/><path class="cls-1" d="M1,186.61h10.9v1.58l-9.61,3.57v0l9.61,3.51v1.56H1v-1h9.72v0L1,192.23v-1l9.72-3.59v0H1Z"/></svg>