<svg id="Capa_1" data-name="Capa 1" xmlns="http://www.w3.org/2000/svg" viewBox="0 0 161.5 210.87"><defs><style>.cls-1{fill:#1f140f;}</style></defs><path class="cls-1" d="M131.62,59.74l-1-.53-1-.51-1-.53-1-.53c-.32-.17-.63-.37-1-.51l-1-.53-.94-.54-1-.53-1-.51-1-.53L121,54l-1-.51-1-.53-1-.53-.38-.22L12.3,96.09a4.09,4.09,0,0,0,0,.7v6.41a4.71,4.71,0,0,0,0,.92v5L131.69,59.79Z"/><path class="cls-1" d="M147.69,68.48,14.6,124v13l141-58.75A20.84,20.84,0,0,0,147.69,68.48Z"/><path class="cls-1" d="M143.31,114.43l.48-.7.49-.68.5-.7c.17-.24.34-.46.49-.7l.53-.73.41-.58.51-.7a6.67,6.67,0,0,0,.48-.7l.51-.68.49-.7c.19-.24.33-.46.5-.7l.51-.71a5.83,5.83,0,0,0,.49-.7l.5-.67.51-.71.49-.7c.17-.22.33-.46.48-.7s.35-.46.51-.7l.51-.68c.17-.24.34-.46.48-.7l.51-.7.51-.7a20.83,20.83,0,0,0,3.09-5.93L16.85,151.84V164.5a17.12,17.12,0,0,0,.24,2.27L143.31,114.7Z"/><path class="cls-1" d="M114.12,155.35l.51-.7.49-.68c.17-.24.34-.46.48-.7l.51-.7.48-.68.51-.7.51-.7.48-.68c.17-.24.34-.46.49-.7a8.17,8.17,0,0,0,.5-.7l.51-.68c.15-.24.32-.46.49-.7l.48-.68.51-.7.46-.71.48-.67.51-.7.49-.71.48-.67.51-.71.51-.7.48-.67c.17-.25.34-.46.48-.71l.51-.7.51-.7.48-.68c.17-.24.34-.46.49-.7h0L22.32,180.4a41.12,41.12,0,0,0,7.5,10.3l84.09-35Z"/><path class="cls-1" d="M101.69,43.46l-1-.54-1-.5-1-.54-1-.53-1-.51-1-.53-1-.63-1-.51-1-.53-1-.53c-.32-.17-.63-.36-1-.51l-1-.34-1-.53-1-.53L87.68,36,10,68.21v2.06a6.82,6.82,0,0,0,.2.87,4.51,4.51,0,0,0,0,.9v9.14l91.47-37.7Z"/><path class="cls-1" d="M92.81,185.19l.48-.71.51-.7.48-.67.63-.66c.17-.22.32-.46.48-.7l.51-.68.49-.7.51-.7.48-.68.51-.7.48-.68-54,22.51a41.27,41.27,0,0,0,48.59-14.88Z"/><path class="cls-1" d="M70.71,26.66l-1-.53-1-.53-.9-.44-1-.53-1-.53-1-.51-1-.53-1-.53-1-.54-1-.5-1-.54-1-.53-1-.51-.51-.29L7.8,40.36v5.23a4.71,4.71,0,0,0,0,.92,4.71,4.71,0,0,0,0,.92v1.76a4.71,4.71,0,0,0,0,.92,4.71,4.71,0,0,0,0,.92v1.82a2.09,2.09,0,0,0,0,.5l62.91-26.2Z"/><path class="cls-1" d="M41.67,10.84l-.84-.46-1-.53a9.89,9.89,0,0,0-1-.51l-1-.53A20.75,20.75,0,0,0,6.78,25.38Z"/></svg>